<?xml version="1.0" encoding="utf-8"?>
<!-- Generator: Adobe Illustrator 21.1.0, SVG Export Plug-In . SVG Version: 6.00 Build 0)  -->
<svg version="1.1" id="Layer_1" xmlns="http://www.w3.org/2000/svg" xmlns:xlink="http://www.w3.org/1999/xlink" x="0px" y="0px"
	 viewBox="0 0 400 183.1" style="enable-background:new 0 0 400 183.1;" xml:space="preserve">
<style type="text/css">
	.st0{fill:#D0AE94;}
</style>
<g>
	<g>
		<path class="st0" d="M21.6,130C4.8,130-2.8,114.6,0.9,94.1c4.3-24.2,21.7-39.4,34-39.4c13.5,0,17,8.6,16.2,13.5
			c-0.6,3.3-2.5,6.8-6.8,6.8c-8.4,0-2.3-13.7-10.5-13.7c-7,0-17.2,10.9-21.1,32.8c-2.9,16.6,1.6,27.7,14.4,27.7
			c4.9,0,11.9-3.1,18-9.4l2,4.1C39.9,124.9,30.4,130,21.6,130z"/>
		<path class="st0" d="M75.1,130c-17.2,0-24.8-17-21.3-37.7c3.9-20.7,20.7-37.5,37.9-37.5c5.5,0,8.8,1,13.3,3.5h11.3l-9.6,55.2
			c-0.8,4.7-0.6,8.4,2.3,8.4c2.3,0,6.6-3.1,8.2-4.5v4.7c-4.1,4.1-9.8,7.2-13.5,7.2c-5.7,0-8.6-3.7-9-9.4
			C89.5,125.7,81.5,130,75.1,130z M103.4,66.4c-2.3-2.3-6.2-5.1-12.7-5.1c-12.1,0-20.7,14.6-23.6,31c-3.1,16.4,0,29.5,11.7,29.5
			c7.8,0,16.2-8,18.3-19.1L103.4,66.4z"/>
		<path class="st0" d="M175.1,9.4l0.6-4.3L200.3,0l-19.9,113.4c-0.8,4.7-0.6,8.4,2.3,8.4c2.3,0,6.6-3.1,8.2-4.5v4.7
			c-4.1,4.1-9.8,7.2-13.5,7.2c-5.7,0-8.6-3.7-9-9.4c-5.1,5.9-13.1,10.3-19.5,10.3c-17.2,0-24.8-17-21.3-37.7
			c3.9-20.7,20.7-37.5,37.9-37.5c5.5,0,8.8,1,13.3,3.5l4.1-24.8C186.5,12.9,185.3,9.4,175.1,9.4z M177.1,66.4
			c-2.3-2.3-6.2-5.1-12.7-5.1c-12.1,0-20.7,14.6-23.6,31c-3.1,16.4,0,29.5,11.7,29.5c7.8,0,16.2-8,18.3-19.1L177.1,66.4z"/>
		<path class="st0" d="M228.4,121.8c5.1,0,13.1-4.1,18.7-9.4l1.8,4.1c-6.8,7.6-17,13.5-25.8,13.5c-17,0-25.4-17-21.9-37.7
			c4.1-21.7,20.9-37.5,35.3-37.5c10.9,0,16.8,8,15,17.6c-1.8,10.7-13.7,23.6-39.2,28.9C212,113.8,217.1,121.8,228.4,121.8z
			 M241.1,72.6c0.8-5.3-1-9.6-6.2-9.6c-9.4,0-18.5,11.1-21.7,29.5c-0.2,1.2-0.4,2.3-0.6,3.3C230.7,91.5,239.5,80.8,241.1,72.6z"/>
		<path class="st0" d="M281.3,130c-17.2,0-24.8-17-21.3-37.7c3.9-20.7,20.7-37.5,37.9-37.5c5.5,0,8.8,1,13.3,3.5h11.3l-9.6,55.2
			c-0.8,4.7-0.6,8.4,2.3,8.4c2.3,0,6.6-3.1,8.2-4.5v4.7c-4.1,4.1-9.8,7.2-13.5,7.2c-5.7,0-8.6-3.7-9-9.4
			C295.7,125.7,287.7,130,281.3,130z M309.6,66.4c-2.3-2.3-6.2-5.1-12.7-5.1c-12.1,0-20.7,14.6-23.6,31c-3.1,16.4,0,29.5,11.7,29.5
			c7.8,0,16.2-8,18.3-19.1L309.6,66.4z"/>
		<path class="st0" d="M386.5,129.2c-7.2,0-10-6.2-8.8-14.4l0.4-1.6c-5.9,9.8-15,16.8-24,16.8c-13.7,0-17.6-13.3-14.6-30.8l5.1-27.9
			c0.8-4.9,0.4-8.6-2.3-8.6c-2.5,0-6.8,3.1-8.2,4.7v-4.9c3.9-4.1,9.4-7,13.3-7c7.2,0,10.3,5.9,8.8,14.2l-5.1,28.5
			c-2.5,13.3-1,21.9,8.8,21.9c6.8,0,18.5-10,22.4-31.4l5.3-30.6h11.5l-9.6,55.2c-0.8,4.7-0.6,8.4,2.3,8.4c2.3,0,6.6-3.1,8.2-4.5v4.7
			C395.9,126.1,390.2,129.2,386.5,129.2z"/>
	</g>
	<g>
		<path class="st0" d="M38.6,160.9H46c3.9,0,6.2,2.1,6.2,5.6c0,1.9-1,3.5-2.5,4.3c2.2,0.9,3.5,2.9,3.5,5.5c0,4-2.6,6.5-6.8,6.5h-7.8
			V160.9z M41.4,163.5v6.3h4.5c2.1,0,3.5-1.1,3.5-3.1c0-2-1.3-3.2-3.5-3.2H41.4z M41.4,172.4v7.7H46c2.9,0,4.4-1.3,4.4-3.9
			c0-2.6-1.5-3.9-4.4-3.9H41.4z"/>
		<path class="st0" d="M66.1,160.9h2.6l7.6,21.9h-2.8l-1.9-5.9h-8.4l-1.9,5.9h-2.8L66.1,160.9z M67.4,164.4l-3.3,9.9h6.6L67.4,164.4
			z"/>
		<path class="st0" d="M95.5,182.8l-6.4-10.3h-3.3v10.3H83v-21.9h7.3c3.9,0,6.5,2.2,6.5,5.8c0,3-1.7,5-4.6,5.6l6.6,10.5H95.5z
			 M85.8,163.5v6.3h4.6c2.4,0,3.5-1.1,3.5-3.2c0-2.1-1.2-3.2-3.5-3.2H85.8z"/>
		<path class="st0" d="M117.1,176.5c0-1.5,0.4-2.9,1.2-4c0.8-1.2,1.8-2.1,3-2.7c-1.3-1.7-1.9-3.3-1.9-4.6c0-1.3,0.5-2.5,1.4-3.4
			c0.9-0.9,2.1-1.3,3.5-1.3c3,0,4.9,1.9,4.9,4.4c0,0.8-0.3,1.8-0.8,2.7c-0.6,1-1.8,1.9-3.5,2.9l4.6,5.8c0.4-0.8,0.9-2.1,1.5-3.7
			l1.8,1.9c-0.5,1.5-1.1,2.8-1.6,3.9l3.5,4.4h-3.2l-1.8-2.3c-1.5,1.7-3.4,2.6-5.9,2.6C119.7,183.1,117.1,180.6,117.1,176.5z
			 M128.1,178.6l-5.4-6.9c-2,1.1-3,2.8-3,5c0,2.5,1.8,4,4,4C125.5,180.6,127,179.9,128.1,178.6z M123.4,168.8c2.1-1,3.2-2.1,3.2-3.7
			c0-1.3-1-2.3-2.4-2.3c-1.4,0-2.4,1.1-2.4,2.5C121.9,166.4,122.4,167.5,123.4,168.8z"/>
		<path class="st0" d="M166.1,182.8l-6.4-10.3h-3.3v10.3h-2.8v-21.9h7.3c3.9,0,6.5,2.2,6.5,5.8c0,3-1.7,5-4.6,5.6l6.6,10.5H166.1z
			 M156.4,163.5v6.3h4.6c2.4,0,3.5-1.1,3.5-3.2c0-2.1-1.2-3.2-3.5-3.2H156.4z"/>
		<path class="st0" d="M176.6,160.9h12.6v2.6h-9.8v6.3h8v2.6h-8v7.7h10.2v2.6h-12.9V160.9z"/>
		<path class="st0" d="M205.8,165.6c-1-1.8-2-2.3-3.5-2.3c-1.5,0-2.6,1.3-2.6,2.7c0,1,0.3,1.8,1.3,2.5c0.5,0.3,0.9,0.6,1.3,0.8
			l1.7,0.9c1.3,0.6,1.8,0.9,2.9,1.7c1.5,1.1,2.3,2.4,2.4,4.6c0,1.8-0.6,3.3-1.7,4.5c-1.3,1.4-2.9,2.1-4.9,2.1
			c-1.8,0-3.3-0.6-4.6-1.7c-1.3-1.1-2.1-2.5-2.5-4.3l2.4-1.4c0.8,3,2.1,4.7,4.7,4.7c1.3,0,2.3-0.4,3-1.3c0.6-0.7,0.8-1.6,0.8-2.6
			c0-1.9-1.5-3-4.1-4.3c-1.7-0.8-2.6-1.3-3.7-2.3c-1.1-1-1.6-2.2-1.6-3.9c0-1.6,0.5-2.9,1.6-4c1.1-1.1,2.3-1.6,3.8-1.6
			c2.9,0,4.5,1.3,5.7,3.5L205.8,165.6z"/>
		<path class="st0" d="M214.4,163.5v-2.6h15.4v2.6h-6.3v19.3h-2.8v-19.3H214.4z"/>
		<path class="st0" d="M239.7,160.9h2.6l7.6,21.9h-2.8l-1.9-5.9h-8.4l-1.9,5.9h-2.8L239.7,160.9z M241,164.4l-3.3,9.9h6.6L241,164.4
			z"/>
		<path class="st0" d="M255.5,160.9h2.8v14.7c0,2.9,1.8,4.9,4.9,4.9c3.1,0,4.9-2,4.9-4.9v-14.7h2.8v14.5c0,2.4-0.7,4.3-2.2,5.7
			c-1.4,1.3-3.3,2-5.5,2c-2.2,0-4-0.7-5.5-2c-1.4-1.3-2.2-3.3-2.2-5.7V160.9z"/>
		<path class="st0" d="M292.2,182.8l-6.4-10.3h-3.3v10.3h-2.8v-21.9h7.3c3.9,0,6.5,2.2,6.5,5.8c0,3-1.7,5-4.6,5.6l6.6,10.5H292.2z
			 M282.4,163.5v6.3h4.6c2.4,0,3.5-1.1,3.5-3.2c0-2.1-1.2-3.2-3.5-3.2H282.4z"/>
		<path class="st0" d="M308.8,160.9h2.6l7.6,21.9h-2.8l-1.9-5.9h-8.4l-1.9,5.9h-2.8L308.8,160.9z M310.1,164.4l-3.3,9.9h6.6
			L310.1,164.4z"/>
		<path class="st0" d="M338.9,160.9h2.8v21.9h-3.2l-9.9-17.1v17.1h-2.8v-21.9h3.2l9.9,17.1V160.9z"/>
		<path class="st0" d="M348.4,163.5v-2.6h15.4v2.6h-6.3v19.3h-2.8v-19.3H348.4z"/>
	</g>
</g>
</svg>
