<?xml version="1.0" encoding="utf-8"?>
<!-- Generator: Adobe Illustrator 21.1.0, SVG Export Plug-In . SVG Version: 6.00 Build 0)  -->
<svg version="1.1" id="Layer_1" xmlns="http://www.w3.org/2000/svg" xmlns:xlink="http://www.w3.org/1999/xlink" x="0px" y="0px"
	 viewBox="0 0 32 32" style="enable-background:new 0 0 32 32;" xml:space="preserve">
<style type="text/css">
	.st0{fill:#013B51;}
</style>
<g>
	<g>
		<path class="st0" d="M14.5,31c-6.7,0-9.7-6.1-8.3-14.3C7.9,7,14.9,1,19.8,1c5.4,0,6.8,3.4,6.5,5.4c-0.2,1.3-1,2.7-2.7,2.7
			c-3.4,0-0.9-5.5-4.2-5.5c-2.8,0-6.9,4.3-8.4,13.1c-1.1,6.6,0.7,11,5.7,11c2,0,4.7-1.2,7.2-3.8l0.8,1.6C21.7,29,18,31,14.5,31z"/>
	</g>
</g>
</svg>
